<?xml version="1.0" encoding="UTF-8" standalone="no"?>
<!-- Generator: Adobe Illustrator 12.0.1, SVG Export Plug-In . SVG Version: 6.00 Build 51448)  -->

<svg
   xmlns:dc="http://purl.org/dc/elements/1.1/"
   xmlns:cc="http://creativecommons.org/ns#"
   xmlns:rdf="http://www.w3.org/1999/02/22-rdf-syntax-ns#"
   xmlns:svg="http://www.w3.org/2000/svg"
   xmlns="http://www.w3.org/2000/svg"
   xmlns:xlink="http://www.w3.org/1999/xlink"
   xmlns:sodipodi="http://sodipodi.sourceforge.net/DTD/sodipodi-0.dtd"
   xmlns:inkscape="http://www.inkscape.org/namespaces/inkscape"
   id="Layer_1"
   xml:space="preserve"
   overflow="visible"
   viewBox="0 0 519.347 590.323"
   version="1.1"
   enable-background="new 0 0 519.347 590.323"
   sodipodi:docname="rotten-apple.svg"
   inkscape:version="0.92.1 r15371"><defs
   id="defs4500"><linearGradient
     inkscape:collect="always"
     id="linearGradient4536"><stop
       style="stop-color:#008000;stop-opacity:1;"
       offset="0"
       id="stop4532" /><stop
       style="stop-color:#008000;stop-opacity:0;"
       offset="1"
       id="stop4534" /></linearGradient><linearGradient
     inkscape:collect="always"
     xlink:href="#linearGradient4536"
     id="linearGradient4538"
     x1="201.687"
     y1="107.80268"
     x2="505.558"
     y2="107.80268"
     gradientUnits="userSpaceOnUse" /></defs><sodipodi:namedview
   pagecolor="#ffffff"
   bordercolor="#666666"
   borderopacity="1"
   objecttolerance="10"
   gridtolerance="10"
   guidetolerance="10"
   inkscape:pageopacity="0"
   inkscape:pageshadow="2"
   inkscape:window-width="1366"
   inkscape:window-height="706"
   id="namedview4498"
   showgrid="false"
   inkscape:zoom="0.59377856"
   inkscape:cx="259.67349"
   inkscape:cy="295.1615"
   inkscape:window-x="-8"
   inkscape:window-y="-8"
   inkscape:window-maximized="1"
   inkscape:current-layer="Layer_1" />
<g
   id="g4493">
	
	
	<g
   id="g4491">
		
	</g>
</g>
<metadata
   id="metadata4495"><rdf:RDF><cc:Work><dc:format>image/svg+xml</dc:format><dc:type
         rdf:resource="http://purl.org/dc/dcmitype/StillImage" /><cc:license
         rdf:resource="http://creativecommons.org/licenses/publicdomain/" /><dc:publisher><cc:Agent
           rdf:about="http://openclipart.org/"><dc:title>Openclipart</dc:title></cc:Agent></dc:publisher><dc:title>apple</dc:title><dc:date>2006-10-30T17:31:25</dc:date><dc:description>a simple drawing of a red apple</dc:description><dc:source>https://openclipart.org/detail/1033/apple-by-johnny_automatic</dc:source><dc:creator><cc:Agent><dc:title>johnny_automatic</dc:title></cc:Agent></dc:creator><dc:subject><rdf:Bag><rdf:li>apple</rdf:li><rdf:li>food</rdf:li><rdf:li>fruit</rdf:li><rdf:li>red</rdf:li></rdf:Bag></dc:subject></cc:Work><cc:License
       rdf:about="http://creativecommons.org/licenses/publicdomain/"><cc:permits
         rdf:resource="http://creativecommons.org/ns#Reproduction" /><cc:permits
         rdf:resource="http://creativecommons.org/ns#Distribution" /><cc:permits
         rdf:resource="http://creativecommons.org/ns#DerivativeWorks" /></cc:License></rdf:RDF></metadata><g
   id="g4552"><path
     id="path4485"
     fill-rule="evenodd"
     d="m513.3 368.29s17.419-188.39-63.871-232.9-175.49-43.874-175.49-43.874-45.162-11.613-57.419-10.968-90.967 3.871-147.74 61.936-64.512 94.84-61.931 142.58 27.741 153.55 27.741 153.55 35.484 78.064 41.936 83.226 45.807 49.032 72.903 54.839 85.161 3.871 98.709 1.936 90.968 2.58 118.71-2.581 109.03-85.17 123.87-114.85 22.58-92.9 22.58-92.9z"
     clip-rule="evenodd"
     fill="#B5121B"
     style="" /><path
     style="fill:#a05a2c"
     id="path4487"
     fill-rule="evenodd"
     d="m435.88 122.48l1.29-9.032 25.161-7.742 1.291-12.903s32.258-25.807 33.548-37.419 8.388-34.839 8.388-34.839l-26.452-4.516s-54.838-3.226-57.419-3.226-25.807 1.935-25.807 1.935l-58.71 14.194-46.45 43.871-5.161 5.806-12.903 47.097-18.71 17.419-2.581-21.29s-8.387-27.742-12.903-27.742-5.807-3.226-5.807-3.226h-3.226l-12.903 8.387-14.839 12.258 6.452 11.613s14.838 10.968 18.064 17.419 10.968 23.226 7.742 29.677-11.613 21.936-11.613 21.936l18.709 8.387s6.451 7.097 19.354-3.871-3.226-21.29-3.226-21.29-5.807-9.677 3.871-15.484 43.227-16.129 53.549-15.484 36.129 3.871 46.451 5.161 74.85-27.12 74.85-27.12z"
     clip-rule="evenodd"
     fill="#4F6E18" /><path
     fill="#4F6E18"
     clip-rule="evenodd"
     d="m435.88 122.48l1.29-9.032 25.161-7.742 1.291-12.903s32.258-25.807 33.548-37.419 8.388-34.839 8.388-34.839l-26.452-4.516s-54.838-3.226-57.419-3.226-25.807 1.935-25.807 1.935l-58.71 14.194-46.45 43.871-5.161 5.806-12.903 47.097-18.71 17.419-2.581-21.29s-8.387-27.742-12.903-27.742-5.807-3.226-5.807-3.226h-3.226l-12.903 8.387-14.839 12.258 6.452 11.613s14.838 10.968 18.064 17.419 10.968 23.226 7.742 29.677-11.613 21.936-11.613 21.936l18.709 8.387s6.451 7.097 19.354-3.871-3.226-21.29-3.226-21.29-5.807-9.677 3.871-15.484 43.227-16.129 53.549-15.484 36.129 3.871 46.451 5.161 74.85-27.12 74.85-27.12z"
     fill-rule="evenodd"
     id="path4522"
     style="fill:url(#linearGradient4538);stroke:none;stroke-opacity:1;fill-opacity:1" /><path
     id="path4489"
     fill-rule="evenodd"
     d="m128.78 96.677c19.355-7.742 45.585-15.076 45.585-15.076 18.618-4.441 37.196-6.549 56.171-3.305 12.472 2.132 30.2 8.871 42.502 7.704 6.438-7.356 5.01-17.696 10.211-25.552 6.205-9.372 11.687-0.515 10.789 6.552 4.025-12.669 43.959-60.471 57.04-48.291 4.511 4.199 69.589-16.137 79.96-18.709 0.212 3.071-0.122 6.071-1 9 17.575 3.292 36.434-0.392 54.271 1.769 7.537 0.913 18.056 7.336 24.729 1.231 1.819 12.711 0.071 13.33-1.464 25.2-2.003 15.479-11.935 31.819-22.989 42.547-3.352 3.452-7.2 6.203-11.547 8.253 3.106 7.075 5.986 5.481-0.182 13.04-7.153 8.765-17.479 12.396-27.818 15.96-1.044 8.386 21.504 21.834 25.993 28.778 3.272 5.061 27.515 41.83 24.007 41.222 12.243 17.943 11.928 39.532 18.193 58.733 9.227 28.277 5.686 63.759 4.131 93.062-1.347 25.372-0.48 51.383-7.393 74.494-2.524 8.44-15.375 66.487-26.932 65.711-17.381 49.203-68.323 100.66-121.93 104.68-32.088 2.407-63.948-5.23-96.07-0.683-36.439 6.404-69.496 11.889-105.74 1.585-49.991-14.213-92.863-56.351-110.92-104.85-11.695-31.407-26.934-58.809-33.474-92.108-4.904-24.97-6.537-47.017-11.291-72.415-8.007-42.781-3.551-94.041 21.59-128 10.651-14.388 15.866-35.889 32.811-45.057 9.281-5.021 18.263-15.345 27.411-21.24 0.017 0.02 24.013-16.48 43.363-24.223zm285.26-32.677c12.456-17.565-7.786-31.605-4-49-12.237-0.507-33.612 3.708-40.02 15.011-4.384 7.734-4.186 16.984-6.15 25.414-2.492 10.692-9.686 19.685-11.83 30.575 20.47-7.443 43.06-10.772 62-22m10-20c2.501-8.686 6.898-16.554 10-25-8.022-0.246-13.274 2.745-20-3-3.04 9.542 5.86 20.289 10 28m62-25c-13.358 0.179-41.383-5.23-49.032 5.751-6.3 9.049-14.18 28.059-14.97 39.249 0.276-2.972 35.451-16.518 40.054-19.261 10.181-6.068 19.582-13.335 27.946-21.739 0.11 0.019-3.81-4.38-4-4m-46 42c12.18 1.766 27.173 4.806 39.063 0.05 15.119-6.048 10.921-26.39 17.937-38.05-16.63 16.15-35.71 28.814-57 38m-94 24c14.087-16.467 2.75-37.181-6-53-13.465 7.407-29.133 20.613-30.139 36.758-0.555 8.898 0.346 17.832-0.475 26.718-0.439 4.758-7.098 14.076-5.387 18.524 8.81-14.967 30.36-17.289 42.01-29m4-41c4.061 4.646 3.777 11.803 7 17 2.198-9.706 4.479-19.373 7-29-6.07 2.124-11.2 6.096-14 12m100 22c5.495 18.095 20.533 11.818 28 0-6.69-5.415-19.68 4.389-28 0m4 21c1.484-1.852 3.151-3.518 5-5-13.119-13.14-16.057-19.004-35.65-14.753-17.522 3.801-33.38 12.288-50.35 17.753 20.892 0.236 72.143 40.197 88 9-2.95-1.706-5.29-4.039-7-7m-156-3c3.442 2.409 5.108 5.742 5 10 6.928-3.806 2.416-18.424 1-24-3.17 4.154-5.17 8.82-6 14m-45 83c2.578-10.281 24.727-26.005 32.463-33.614 3.665-3.677 7.395-7.288 11.189-10.832 8.998-8.217 0.472-5.216 3.861-14.524 4.265-11.707-2.853-22.663-12.514-30.031-4.881 13.98-8.513 28.246-10.679 42.9-1.714 11.601-5.696 13.129-11 22.901-0.34 0.626-11.33 11.111-11.321 11.199-12.702-10.845-2.235-33.377-14-46-1.543 10.95-5.798 19.784-18 21 7.118 9.754 16.401 26.769 14.154 39.057-1.154 6.309-4.276 12.073-6.058 18.195-3.021 10.384 12.062 11.447 19.904 13.749 4.45-11.72-0.84-22.62 2.01-34.01m12-49c4.052-13.778 15.217-23.896-5.378-27.431-14.667-2.518-33.975-1.921-47.74-6.7-8.527-2.96-30.955 4.62-39.882 7.131-20.367 5.73-39.202 15.511-58 25-54.91 27.72-98.487 83.2-102.23 149.09-1.03 18.139 25.42 177.82 34.938 185.45-0.255 0.075 28.31 54.979 32.251 61.007 19.082 29.179 45.865 50.212 75.787 61.695 30.726 11.792 67.629-0.995 99.423-1.065 33.043-0.072 69.139 7.444 101.95 0.575 53.261-11.148 102.91-72.829 127.76-118.6 16.049-29.558 20.691-64.893 22.677-98.81 2.375-40.572 4.14-87.249-7.292-126.18-7.668-26.112-14.984-55.301-34.241-75.633-7.206-7.609-19.123-15.938-28.967-19.069-13.53-4.304-25.529 9.558-39.504 9.561-3.82 0-14.066 8.836-22.405 9.616-12.762 1.194-25.545-1.072-37.876-4.17-23.498-5.905-51.53 4.33-71.272 17.523 0.043 3.391-4.751 20.917 4 18 8.047-2.683 16.906-0.667 25-3 11.545-3.327 28.335-13.956 36-5-17.875 4.677-37.045 6.728-53.233 16.246-19.102 11.231-24.23 15.551-43.758 5.038-8.369-4.505-17.125-7.214-27.239-9.444-11.801-2.602-43.394-1.555-51.769-9.84 12.88-0.114 35.917 2.909 45 5 35.221 8.062 42.743-32.719 17-51-6.994-4.966-10.866-5.947-15.451-14.466-8.439-15.684 8.674-14.668 17.439-22.042 27.486-23.125 33.48 12.562 40.012 33.509 9.83-0.7 5.24-6.05 6.99-12.01m139 13c13.678-3.702 4.338-6.862-2.193-13.763-10.367-10.957-10.148-24.465-28.035-27.435-12.185-2.022-25.1 1.06-36.323 5.743-5.07 2.115-29.212 14.37-27.448 21.456 10.477-3.057 27.865 4.958 37.403 9.278 14.94 6.77 37.87 9.78 56.59 4.72m-173-40c-5.877 4.639-41.441 20.553-21.788 26.255 18.13 5.25 35.84-14.23 21.79-26.26m193 30c-3.884-1.98-7.217-4.647-10-8 5.339-2.271 13.927 0.629 17-6-12.568-1.959-23.635-8.386-36-11 3.65 10.57 14.06 33.55 29 25m-208 3c5.117 0.441 17.148 4.531 16-6-2.2 3.46-16.49 0.88-16 6zm73 16c20.41-1.951 39.787 2.222 60 1-9.81-22.88-52.12-28.48-60-1m75 2c2.331 4.741 9.11-1.651 11-3-9.686-0.861-18.146-6.806-28-7 1.68 6.33 10.03 17.19 17 10"
     clip-rule="evenodd"
     style="" /><path
     inkscape:connector-curvature="0"
     id="path4502"
     d="m 170.44445,270.74965 c -7.4994,-2.21323 -21.9265,-14.00925 -22.93749,1.12925 -8.06815,8.2956 -20.41474,-5.26185 -27.97971,-3.84667 -9.65652,-13.10736 -26.402712,2.34405 -20.743551,15.0813 4.469961,9.42978 -0.208204,21.72701 -11.638949,14.61239 -11.919775,1.96569 -21.148521,12.17989 -34.157052,10.59207 -13.238506,2.96564 -13.413164,17.68418 -8.306636,27.25755 -4.890099,6.71732 -13.348207,10.61467 -14.494067,19.40518 -10.766829,6.12463 9.193184,14.67863 15.84038,13.1366 15.662712,-3.17477 24.793826,10.92415 36.436386,17.85118 13.675841,0.91396 12.152816,-21.59918 25.925439,-24.16228 12.16535,-5.18399 24.28089,2.75397 32.71992,11.02116 6.51171,7.15457 15.7558,12.21649 25.69061,10.76098 12.96829,-0.25164 22.96165,-11.09833 36.12158,-10.06492 8.69365,-0.0174 17.21522,1.95933 25.8495,2.67451 11.05934,8.47661 24.57889,2.86668 35.9818,-1.1818 12.92104,-3.74202 32.8048,-0.58971 36.33033,-17.68988 4.65061,-11.78235 -0.1295,-24.75649 -11.66474,-29.87047 -9.08946,-6.84567 -21.90035,-13.67535 -32.88434,-6.93104 -8.59735,4.86563 -16.42853,-2.7789 -8.35144,-10.34854 4.12102,-14.47005 -14.64208,-11.01593 -20.16773,-19.29155 -7.8751,-7.88881 -19.08426,-9.75217 -19.53444,-22.27917 -5.65543,-5.8417 -13.29812,-8.14864 -19.75436,-13.55163 -9.91913,-1.58911 -9.8664,14.25088 -18.28144,15.69578 z"
     style="opacity:0.445;fill:#925c46;fill-opacity:1;stroke:none;stroke-width:1px;stroke-linecap:butt;stroke-linejoin:miter;stroke-opacity:1" /><path
     inkscape:connector-curvature="0"
     id="path4508"
     d="m 405.01484,184.19853 c -7.15594,2.54141 -17.87769,2.09269 -18.57636,11.95858 -4.56554,9.69646 16.46918,11.20402 8.92261,20.3317 -3.56444,3.9204 -13.65224,10.33822 -5.31128,14.78708 6.90979,5.87274 2.88906,16.75084 -3.34067,21.5487 -4.76228,4.90526 -8.47417,13.21842 -3.38446,19.16232 4.39174,8.06031 12.193,14.8596 21.69327,15.43614 8.43639,4.17202 9.01713,17.15778 19.18172,18.9285 9.2873,0.21156 15.1534,11.28789 11.45091,19.4543 2.64635,7.91527 5.43389,20.31404 15.98861,19.93073 11.13401,0.9175 13.57364,-11.52091 14.72741,-19.94427 2.15598,-10.20249 -5.8605,-17.32318 -13.38459,-22.36229 -3.44494,-5.41895 8.71615,-6.2053 5.86303,-13.15455 0.0265,-7.40251 -5.06808,-20.50971 5.24475,-22.84881 6.23197,-0.33708 11.55718,-3.91639 8.81916,-10.55782 0.66054,-7.84557 4.97647,-17.55457 -2.27305,-23.66065 -4.67412,-5.68208 -12.25646,-9.03168 -15.27864,-15.92519 -2.36539,-7.63662 2.13214,-16.5286 -2.96504,-23.47583 -1.90238,-8.71148 -8.69082,-15.12333 -14.97392,-19.65494 0.1694,-7.51948 -6.41227,-13.29487 -13.66183,-9.78236 -8.19032,4.13095 -7.27073,17.19555 -16.8027,19.673 l -0.96011,0.14222 z"
     style="fill:#8f553d;stroke:none;stroke-width:1px;stroke-linecap:butt;stroke-linejoin:miter;stroke-opacity:1;fill-opacity:1;opacity:0.555" /><path
     inkscape:connector-curvature="0"
     id="path4515"
     d="m 267.42076,524.85485 c -4.43852,0 -8.87704,0 -13.31556,0 -0.26911,0 -3.2932,-0.0357 -3.32889,0 -0.26154,0.26154 0.26154,0.84808 0,1.10963 -0.26154,0.26154 -0.7788,-0.16542 -1.10963,0 -0.46786,0.23393 -0.73975,0.73975 -1.10963,1.10963 -0.73975,0 -1.51747,-0.23394 -2.21926,0 -0.99248,0.33082 -1.28354,1.75139 -2.21926,2.21925 -5.36364,2.68182 -1.3162,0.26324 -5.54815,1.10963 -1.14693,0.22939 -2.18195,0.88025 -3.32888,1.10963 -0.72539,0.14508 -1.47951,0 -2.21926,0 -1.47951,0 -2.95902,0 -4.43852,0 -2.21926,0 -4.43852,0 -6.65778,0 -0.36988,0 -0.73975,0 -1.10963,0 -0.36988,0 -0.7788,0.16542 -1.10963,0 -1.54021,-0.7701 -1.10963,-1.97438 -1.10963,-3.32888 0,-0.36988 0.26154,-0.84809 0,-1.10963 -0.26154,-0.26155 -0.84809,0.26154 -1.10963,0 -0.26154,-0.26155 0.26154,-0.84809 0,-1.10963 -0.52308,-0.52309 -1.5576,0.33082 -2.21926,0 -0.46786,-0.23393 -0.73975,-0.73976 -1.10963,-1.10963 -0.73975,0 -1.51747,0.23393 -2.21926,0 -0.49624,-0.16542 -0.64177,-0.8757 -1.10963,-1.10963 -0.8877,-0.44386 -2.44118,0.44385 -3.32889,0 -0.46786,-0.23393 -0.61339,-0.94422 -1.10963,-1.10963 -5.05135,0 -0.0635,0.52308 -3.32889,-1.10963 -0.33082,-0.16542 -0.84808,0.26154 -1.10963,0 -0.34292,-0.34293 0.34018,-5.20797 0,-5.54815 -0.58482,-0.58483 -1.51005,-0.68411 -2.21925,-1.10963 -2.60775,-1.56465 -4.73766,-3.57288 -7.76741,-4.43852 -1.06694,-0.30484 -2.2762,0.3509 -3.32889,0 -1.26517,-0.42172 -2.13607,-1.62285 -3.32889,-2.21926 -1.04617,-0.52308 -2.24289,-0.67523 -3.32889,-1.10963 -0.76791,-0.30716 -1.40825,-0.94743 -2.21926,-1.10963 -1.08808,-0.21762 -2.25239,0.26913 -3.32889,0 -0.50746,-0.12687 -0.6744,-0.81947 -1.10963,-1.10963 -5.60563,-3.73709 -0.0257,-0.009 -3.32889,-1.10963 -0.73975,-0.36987 -1.4795,-0.73975 -2.21926,-1.10963 0,-0.36987 0.26155,-0.84809 0,-1.10963 -0.26154,-0.26154 -0.84808,0.26154 -1.10963,0 -0.26154,-0.26154 0.26155,-0.84809 0,-1.10963 -2.29586,-2.29586 0.0897,3.50839 -2.21926,-1.10963 -0.35001,-0.70003 0.35002,-4.84811 0,-5.54815 -0.23393,-0.46786 -0.87569,-0.64176 -1.10963,-1.10963 -0.14588,-0.29176 0,-3.85827 0,-4.43851 0,-0.36988 -0.26154,-0.84809 0,-1.10963 0.26155,-0.26155 0.84809,0.26154 1.10963,0 0,-2.95902 -0.36987,0.36987 1.10963,-1.10963 0.26155,-0.26155 -0.26154,-0.84809 0,-1.10963 0.52309,-0.52309 1.55761,0.33082 2.21926,0 0.46786,-0.23393 0.64177,-0.8757 1.10963,-1.10963 0.29177,-0.14589 3.85827,0 4.43852,0 0.36988,0 0.73976,0 1.10963,0 0.36988,0 1.10963,-0.36988 1.10963,0 0,0.36987 -1.10963,0.36987 -1.10963,0 0,-4.01478 1.37455,-0.79475 2.21926,-3.32889 0.23393,-0.70179 -0.17942,-1.5016 0,-2.21926 0.20059,-0.80238 0.84809,-1.43463 1.10963,-2.21926 0.11697,-0.3509 -0.20517,-0.80187 0,-1.10963 0.58031,-0.87047 1.63895,-1.34879 2.21926,-2.21926 1.14793,-1.7219 -1.88496,-0.72196 1.10963,-2.21926 0.58953,-0.29477 1.62972,0.29477 2.21926,0 0.46786,-0.23393 0.64177,-0.8757 1.10963,-1.10963 0.33083,-0.16541 0.73975,0 1.10963,0 0.36988,-0.36988 0.64177,-0.8757 1.10963,-1.10963 0.33083,-0.16541 0.73975,0 1.10963,0 2.21926,0 4.43852,0 6.65778,0 0.49973,0 2.99119,-0.16885 3.32889,0 0.46786,0.23393 0.73975,0.73975 1.10962,1.10963 0.36988,0.36988 0.8757,0.64177 1.10963,1.10963 0.16542,0.33083 -0.26154,0.84809 0,1.10963 0.26155,0.26154 0.84809,-0.26154 1.10963,0 0.37003,0.37003 -0.37002,1.84923 0,2.21926 0.26155,0.26154 0.84809,-0.26154 1.10963,0 0.26155,0.26154 -0.26154,0.84809 0,1.10963 0.0357,0.0357 3.05978,0 3.32889,0 1.84939,0 3.69877,0 5.54815,0 0.36988,0 0.73975,0 1.10963,0 0.36988,0 0.7788,0.16541 1.10963,0 0.46786,-0.23393 0.61339,-0.94422 1.10963,-1.10963 0.70179,-0.23393 1.50159,0.17942 2.21926,0 1.60475,-0.40119 2.90269,-1.60493 4.43852,-2.21926 1.08599,-0.4344 2.24289,-0.67523 3.32889,-1.10963 0.76791,-0.30716 1.43463,-0.84809 2.21926,-1.10963 0.35089,-0.11696 0.7788,0.16542 1.10963,0 0.46786,-0.23393 0.64177,-0.8757 1.10963,-1.10963 1.53057,-0.76529 0.99253,1.34382 2.21926,-1.10963 0.23695,-0.4739 0,-5.1095 0,-5.54815 0,-2.58913 0,-5.17827 0,-7.7674 0,-1.10963 0.35089,-2.27621 0,-3.32889 -0.42173,-1.26518 -1.55761,-2.171 -2.21926,-3.32889 -0.82069,-1.4362 -1.47951,-2.95902 -2.21926,-4.43852 -0.73976,-1.47951 -1.63846,-2.8897 -2.21926,-4.43852 -0.53548,-1.42794 -0.69067,-2.97216 -1.10963,-4.43852 -0.32133,-1.12465 -0.67523,-2.24289 -1.10963,-3.32889 -0.86445,-2.16112 -2.21926,-3.17878 -2.21926,-5.54815 0,-0.36987 -0.26154,-0.84808 0,-1.10963 0.26154,-0.26154 0.84809,0.26155 1.10963,0 0.26154,-0.26154 -0.26154,-0.84808 0,-1.10963 0.1722,-0.1722 2.89711,0.14393 3.32889,0 1.31484,-0.43828 3.12367,-1.78097 4.43852,-2.21926 0.35089,-0.11696 0.73975,0 1.10963,0 1.10963,0 2.2408,0.21762 3.32889,0 0.811,-0.1622 1.4795,-0.73975 2.21925,-1.10963 1.81109,-0.90554 3.4914,-1.87646 5.54815,-2.21925 2.55391,-0.42566 5.19827,0.32114 7.76741,0 1.51326,-0.18916 2.92526,-0.92048 4.43852,-1.10963 1.46808,-0.18351 2.97044,0.18351 4.43852,0 1.51326,-0.18916 2.94309,-0.81055 4.43852,-1.10963 0.36269,-0.0725 0.7788,0.16541 1.10963,0 0.46786,-0.23393 0.58654,-1.10963 1.10963,-1.10963 0.36987,0 0,0.73975 0,1.10963 0,1.10963 0,2.21926 0,3.32889 0,2.58913 0,5.17827 0,7.7674 0,0.49973 0.16885,2.99119 0,3.32889 -0.23393,0.46786 -0.8757,0.64177 -1.10963,1.10963 -0.16542,0.33083 0.26154,0.84809 0,1.10963 -0.26154,0.26154 -0.84809,-0.26154 -1.10963,0 -0.26154,0.26154 0.11696,0.75874 0,1.10963 -0.8085,2.42548 -2.7061,3.81573 -4.43852,5.54815 -0.36988,0.36988 -0.8757,0.64177 -1.10963,1.10963 -0.33083,0.66165 0.52308,1.69617 0,2.21926 -0.26154,0.26154 -0.94422,-0.33083 -1.10963,0 -0.18346,0.36692 0,4.69416 0,5.54815 0,0.31022 -0.0868,5.37453 0,5.54815 1.14793,0 1.53367,-0.26155 2.21926,1.10963 0.14588,0.29176 0,3.85827 0,4.43851 0,2.58914 0,5.17828 0,7.76741 0,0.73976 0,1.47951 0,2.21926 0,0.73975 -0.23393,1.51747 0,2.21926 0.16541,0.49624 0.8757,0.64177 1.10963,1.10963 0.16541,0.33083 -0.26154,0.84809 0,1.10963 0.52308,0.52308 1.5576,-0.33083 2.21926,0 0.46786,0.23393 0.64177,0.8757 1.10963,1.10963 0.3377,0.16885 2.82916,0 3.32889,0 0.36987,0 0.73975,0 1.10963,0 0.36987,0 0.84808,-0.26154 1.10963,0 0.26154,0.26154 -0.26155,0.84809 0,1.10963 0.52308,0.52308 1.69617,-0.52308 2.21926,0 0.26154,0.26154 -0.26155,0.84809 0,1.10963 0.26154,0.26154 0.84808,-0.26154 1.10963,0 0.26154,0.26154 -0.26155,0.84809 0,1.10963 0.26154,0.26154 0.7788,-0.16541 1.10962,0 0.46787,0.23393 0.64177,0.8757 1.10963,1.10963 0.33083,0.16541 0.84809,-0.26154 1.10963,0 0.26155,0.26154 -0.26154,0.84809 0,1.10963 0.55482,0.55481 2.77408,-0.55482 3.32889,0 0.52309,0.52308 -0.52308,1.69617 0,2.21926 2.10314,2.10313 2.87954,0.44248 5.54815,1.10963 0.50747,0.12686 0.6744,0.81947 1.10963,1.10963 0.68816,0.45877 1.5311,0.65085 2.21926,1.10963 1.01011,0.67341 2.34538,2.83713 3.32889,3.32889 0.33083,0.16541 0.75873,-0.11697 1.10963,0 8.03751,2.67917 -1.74945,-0.31991 3.32889,2.21926 0.33083,0.16541 0.7788,-0.16542 1.10963,0 1.19281,0.5964 2.262,1.41909 3.32889,2.21925 0.41847,0.31386 0.61339,0.94422 1.10963,1.10963 0.70179,0.23394 1.51747,-0.23393 2.21926,0 0.99248,0.33083 1.34879,1.63895 2.21926,2.21926 0.68816,0.45878 1.63443,0.52481 2.21926,1.10963 1.52115,1.52116 1.10963,3.66028 1.10963,5.54815 0,2.58914 0,5.17827 0,7.76741 0,4.06864 0,8.13728 0,12.20593 0,0.77179 0.20063,5.14687 0,5.54815 -0.23394,0.46786 -0.8757,0.64176 -1.10963,1.10962 -0.16542,0.33083 0.26154,0.84809 0,1.10963 -0.26155,0.26155 -0.75874,-0.11696 -1.10963,0 -0.78463,0.26155 -1.47951,0.73976 -2.21926,1.10963 -0.73976,0.36988 -1.63444,0.52481 -2.21926,1.10963 -0.26155,0.26155 0,0.73976 0,1.10963 -0.36988,0 -0.84809,-0.26154 -1.10963,0 -0.26155,0.26155 0.26154,0.84809 0,1.10963 -0.26155,0.26155 -0.7788,-0.16541 -1.10963,0 -0.46786,0.23393 -0.64177,0.8757 -1.10963,1.10963 -0.33083,0.16542 -0.84809,-0.26154 -1.10963,0 -0.26154,0.26155 0.26154,0.84809 0,1.10963 -0.26154,0.26154 -0.7788,-0.16541 -1.10963,0 -0.46786,0.23393 -0.64177,0.8757 -1.10963,1.10963 -0.66166,0.33083 -1.55761,-0.33083 -2.21926,0 -0.93572,0.46786 -1.22678,1.88843 -2.21926,2.21926 -0.70179,0.23393 -1.51747,-0.23393 -2.21926,0 -0.49624,0.16542 -0.64177,0.8757 -1.10963,1.10963 -0.33083,0.16542 -0.7788,-0.16541 -1.10963,0 -0.46786,0.23393 -0.64177,0.8757 -1.10963,1.10963 -0.66165,0.33083 -1.51747,-0.23393 -2.21926,0 -0.78462,0.26154 -1.43463,0.84809 -2.21926,1.10963 -0.35089,0.11697 -0.73975,0 -1.10963,0 -0.73975,0 -1.5576,0.33083 -2.21926,0 -0.33082,-0.16541 0,-0.73975 0,-1.10963 0,-0.36988 0,-0.73975 0,-1.10963 0,-0.78651 0.14345,-6.37088 0,-6.65778 -0.23393,-0.46786 -0.8757,-0.64177 -1.10963,-1.10963 -0.16541,-0.33082 0.26155,-0.84808 0,-1.10963 -0.36925,-0.36925 -1.85,0.36926 -2.21926,0 -0.26154,-0.26154 0.26155,-0.84808 0,-1.10963 -0.26154,-0.26154 -0.7788,0.16542 -1.10963,0 -0.46786,-0.23393 -0.64176,-0.8757 -1.10962,-1.10963 -0.33083,-0.16541 -0.84809,0.26155 -1.10963,0 -0.0447,-0.0447 0,-4.03102 0,-4.43851 0,-0.36988 0.35883,-1.01993 0,-1.10963 -1.43534,-0.35884 -2.95902,0 -4.43852,0 z"
     style="fill:#8f553d;stroke:none;stroke-width:1px;stroke-linecap:butt;stroke-linejoin:miter;stroke-opacity:1;fill-opacity:1;opacity:0.397" /><path
     inkscape:connector-curvature="0"
     id="path4517"
     d="m 337.32743,405.01484 c -6.95738,-0.48477 -16.39485,-0.0562 -18.39912,8.23751 1.78581,6.78138 -0.80332,12.09039 -3.99841,17.81414 -1.52449,5.68867 2.55393,10.07603 -1.07574,15.52758 -0.10964,5.60343 -7.73919,14.28865 0.45892,17.13016 6.54141,0.43902 12.06806,5.36466 13.36242,10.90434 7.11374,1.79301 12.66378,-5.01962 19.66194,-5.09616 6.48749,-2.39694 14.35969,-1.13588 18.82284,4.43065 4.95629,5.5882 2.00973,13.26155 4.28677,19.7252 2.03659,5.70739 2.93295,15.60843 11.35541,14.324 2.5939,-6.12155 9.80899,-5.51814 14.44466,-9.33044 6.31481,-5.34875 1.62609,-13.90347 3.47208,-20.73456 3.87047,-5.0642 11.52864,-2.84801 17.01362,-4.91964 8.81083,-1.10404 17.76096,0.22669 26.53925,-0.28557 6.70199,-1.93151 11.94105,-8.32379 11.66053,-15.46075 -0.8998,-7.67 5.90541,-14.61888 1.60204,-22.11511 -2.69943,-6.60953 -9.28684,-10.8132 -16.45983,-10.22869 -5.28944,-2.23833 -12.57667,6.37623 -15.09546,-2.09239 -2.9389,-6.45354 2.84633,-19.25771 -8.09123,-19.1306 -6.50041,-0.95931 -13.47628,2.49838 -19.57368,-0.61813 -4.82699,-3.37842 -13.00932,-13.2913 -16.47554,-3.22027 -4.77905,1.81964 -10.20404,4.87127 -14.61828,6.0354 -7.08835,-2.80151 -14.35254,-6.04392 -22.09161,-4.01243 -2.5339,0.71731 -4.09203,3.03802 -6.80158,3.11576 z"
     style="opacity:0.339;fill:#8f553d;fill-opacity:1;stroke:none;stroke-width:1px;stroke-linecap:butt;stroke-linejoin:miter;stroke-opacity:1" /></g></svg>